# xmcd
#
# Track frame offsets: 
#        150
#        19411
#        38323
#        60787
#        76289
#        92669
#        110484
#        125027
#        140279
#        159491
#        175129
#        190903
#        208107
#        224635
#        243373
#
# Disc length: 3420 seconds
#
# Revision: 2
# Processed by: cddbd v1.5.2PL0 Copyright (c) Steve Scherf et al.
# Submitted via: ExactAudioCopy v0.99pb4
#
DISCID=c90d5a0f
DTITLE=Королёв Виктор - Избранное
DYEAR=1999
DGENRE=Шансон
TTITLE0=Ах, какие ты говорила слова
TTITLE1=Я не буду ждать на берегу
TTITLE2=Пьяная вишня
TTITLE3=Я, московский озорной гуляка
TTITLE4=Тополь не уронит
TTITLE5=Украденная ночь
TTITLE6=Базар-Вокзал
TTITLE7=Снегири
TTITLE8=Дым кольцами
TTITLE9=Зашумели сады весной
TTITLE10=Опер
TTITLE11=Не гуляй
TTITLE12=Непутёвая
TTITLE13=Мама, помолись
TTITLE14=Бродвей на Тверской
EXTD=
EXTT0=
EXTT1=
EXTT2=
EXTT3=
EXTT4=
EXTT5=
EXTT6=
EXTT7=
EXTT8=
EXTT9=
EXTT10=
EXTT11=
EXTT12=
EXTT13=
EXTT14=
PLAYORDER=
